<?xml version="1.0" encoding="iso-8859-1"?>
<!-- Generator: Adobe Illustrator 19.0.0, SVG Export Plug-In . SVG Version: 6.00 Build 0)  -->
<svg xmlns="http://www.w3.org/2000/svg" xmlns:xlink="http://www.w3.org/1999/xlink" version="1.1" id="Capa_1" x="0px" y="0px" viewBox="0 0 512.038 512.038" style="enable-background:new 0 0 512.038 512.038;" xml:space="preserve" width="512px" height="512px">
<g>
	<g>
		<g>
			<path d="M349.885,59.734h-63.86l18.285-42.667h17.299c15.851-0.044,31.06,6.258,42.233,17.5l5.608,5.604     c3.34,3.3,8.718,3.283,12.036-0.038c3.319-3.321,3.332-8.699,0.03-12.036l-5.608-5.6C361.543,8.044,341.989-0.057,321.61,0     H190.427c-20.378-0.058-39.932,8.042-54.3,22.492l-5.608,5.604c-3.302,3.338-3.289,8.715,0.03,12.036     c3.319,3.321,8.697,3.338,12.036,0.038l5.608-5.608c11.175-11.239,26.384-17.54,42.233-17.495h17.299l18.285,42.667h-63.86     c-23.553,0.028-42.639,19.114-42.667,42.667v324.267c0.028,23.553,19.114,42.639,42.667,42.667h5l-28.1,28.1     c-2.178,2.151-3.037,5.304-2.251,8.262c0.786,2.958,3.097,5.269,6.055,6.055s6.111-0.073,8.262-2.251l40.167-40.166h129.467     l40.166,40.166c3.338,3.296,8.711,3.28,12.029-0.038c3.317-3.317,3.334-8.69,0.038-12.029l-28.1-28.1h5     c23.553-0.028,42.639-19.114,42.667-42.667V102.4C392.524,78.848,373.438,59.761,349.885,59.734z M285.744,17.067l-18.284,42.667     h-22.881l-18.284-42.667H285.744z M136.552,179.2h110.933v102.4H136.552V179.2z M375.485,426.667     c-0.015,14.132-11.468,25.585-25.6,25.6H162.152c-14.132-0.015-25.585-11.468-25.6-25.6v-128h238.933V426.667z M375.485,281.6     H264.552V179.2h110.933V281.6z M375.485,162.134H136.552V102.4c0.015-14.132,11.468-25.585,25.6-25.6h76.771l0.029,0.004     l0.02-0.004h34.093l0.02,0.004l0.029-0.004h76.771c14.132,0.015,25.585,11.468,25.6,25.6V162.134z" fill="#D80027"/>
			<path d="M179.219,435.2h153.6c14.132-0.015,25.585-11.468,25.6-25.6v-17.067c0.001-2.263-0.898-4.434-2.499-6.035     c-1.6-1.6-3.771-2.499-6.035-2.499H162.152c-2.263-0.001-4.434,0.898-6.035,2.499c-1.6,1.6-2.499,3.771-2.499,6.035V409.6     C153.634,423.732,165.087,435.185,179.219,435.2z M170.685,401.067h170.667v8.533c-0.005,4.711-3.822,8.529-8.533,8.533h-153.6     c-4.711-0.005-8.529-3.822-8.533-8.533V401.067z" fill="#D80027"/>
			<path d="M179.219,366.934c14.138,0,25.6-11.462,25.6-25.6c0-14.138-11.461-25.6-25.6-25.6s-25.6,11.462-25.6,25.6     C153.634,355.466,165.087,366.918,179.219,366.934z M179.219,332.8c4.713,0,8.533,3.821,8.533,8.533s-3.82,8.533-8.533,8.533     s-8.533-3.82-8.533-8.533C170.69,336.623,174.508,332.805,179.219,332.8z" fill="#D80027"/>
			<path d="M332.819,366.934c14.138,0,25.6-11.462,25.6-25.6c-0.015-14.132-11.468-25.585-25.6-25.6     c-14.138,0-25.6,11.462-25.6,25.6C307.219,355.472,318.68,366.934,332.819,366.934z M332.819,332.8     c4.713,0,8.533,3.821,8.533,8.533c-0.005,4.711-3.822,8.529-8.533,8.533c-4.713,0-8.533-3.82-8.533-8.533     S328.106,332.8,332.819,332.8z" fill="#D80027"/>
			<path d="M324.285,93.867H187.752c-14.138,0-25.6,11.461-25.6,25.6s11.462,25.6,25.6,25.6h136.533c14.138,0,25.6-11.461,25.6-25.6     S338.424,93.867,324.285,93.867z M324.285,128H187.752c-4.713,0-8.533-3.82-8.533-8.533s3.82-8.533,8.533-8.533h136.533     c4.711,0.005,8.529,3.822,8.533,8.533C332.814,124.178,328.996,127.996,324.285,128z" fill="#D80027"/>
			<path d="M196.285,196.267h-25.6c-4.713,0-8.533,3.82-8.533,8.533s3.821,8.533,8.533,8.533h25.6c4.713,0,8.533-3.821,8.533-8.533     S200.998,196.267,196.285,196.267z" fill="#D80027"/>
			<path d="M225.128,196.946c-3.178-1.339-6.85-0.63-9.301,1.795c-0.753,0.829-1.359,1.78-1.792,2.813     c-0.911,2.067-0.911,4.421,0,6.487c0.433,1.034,1.039,1.987,1.792,2.817c1.636,1.558,3.8,2.441,6.059,2.475     c1.115-0.014,2.216-0.246,3.242-0.683c1.033-0.435,1.985-1.041,2.817-1.792c0.753-0.83,1.359-1.783,1.792-2.817     c0.911-2.067,0.911-4.421,0-6.487C228.956,199.413,227.269,197.726,225.128,196.946z" fill="#D80027"/>
			<path d="M298.685,213.334h25.6c4.713,0,8.533-3.821,8.533-8.533s-3.82-8.533-8.533-8.533h-25.6c-4.713,0-8.533,3.82-8.533,8.533     S293.973,213.334,298.685,213.334z" fill="#D80027"/>
			<path d="M343.827,210.859c0.403,0.367,0.829,0.708,1.275,1.021c0.477,0.324,0.996,0.583,1.542,0.771     c0.483,0.245,1,0.418,1.533,0.513c0.565,0.098,1.136,0.155,1.709,0.171c2.259-0.035,4.421-0.918,6.059-2.475     c0.771-0.816,1.379-1.772,1.792-2.817c0.911-2.067,0.911-4.421,0-6.487c-0.433-1.033-1.039-1.984-1.792-2.813     c-2.05-2.003-4.956-2.865-7.767-2.304c-0.534,0.091-1.051,0.263-1.533,0.508c-0.546,0.187-1.064,0.447-1.542,0.771     c-0.446,0.314-0.872,0.657-1.276,1.024c-0.753,0.829-1.359,1.78-1.792,2.813c-0.911,2.067-0.911,4.421,0,6.487     C342.467,209.076,343.073,210.029,343.827,210.859z" fill="#D80027"/>
		</g>
	</g>
</g>
<g>
</g>
<g>
</g>
<g>
</g>
<g>
</g>
<g>
</g>
<g>
</g>
<g>
</g>
<g>
</g>
<g>
</g>
<g>
</g>
<g>
</g>
<g>
</g>
<g>
</g>
<g>
</g>
<g>
</g>
</svg>
